<!DOCTYPE svg PUBLIC "-//W3C//DTD SVG 20010904//EN" "http://www.w3.org/TR/2001/REC-SVG-20010904/DTD/svg10.dtd">
<svg version="1.0" xmlns="http://www.w3.org/2000/svg" width="1260px" height="1260px" viewBox="0 0 12600 12600" preserveAspectRatio="xMidYMid meet">
<g id="layer1" fill="#004b73" stroke="none">
 <path d="M5930 11419 c-866 -73 -1643 -332 -2360 -787 -914 -579 -1658 -1485 -2034 -2477 -31 -82 -70 -184 -85 -225 -58 -149 -141 -471 -185 -711 -86 -466 -101 -1043 -40 -1544 132 -1094 643 -2158 1423 -2958 112 -115 349 -331 476 -433 720 -578 1624 -957 2550 -1068 235 -28 366 -36 637 -36 383 0 682 28 1018 97 96 19 198 39 225 43 112 18 476 132 690 218 496 199 1006 507 1400 846 498 430 831 826 1140 1356 229 393 449 948 541 1365 l18 80 135 1 c311 3 569 110 781 324 139 139 233 300 286 491 38 138 45 371 15 518 -68 329 -277 607 -569 758 -171 89 -293 120 -511 130 l-138 6 -17 76 c-35 154 -137 490 -198 656 -163 440 -431 913 -742 1310 -187 238 -472 538 -686 721 -603 514 -1272 870 -2010 1069 -74 20 -164 44 -200 55 -147 43 -445 91 -717 115 -181 16 -675 18 -843 4z m692 -369 c482 -32 793 -97 1283 -267 1077 -374 1994 -1131 2570 -2123 86 -147 235 -448 285 -575 52 -131 176 -525 204 -647 l6 -28 -547 0 -548 0 -48 136 c-216 610 -531 1096 -979 1511 -304 282 -680 529 -1042 683 -341 146 -587 221 -876 269 -245 40 -329 46 -635 46 -250 -1 -327 -4 -460 -23 -610 -82 -1135 -278 -1617 -604 -432 -292 -790 -658 -1065 -1088 -349 -548 -529 -1076 -583 -1720 -11 -127 -14 -479 -4 -504 5 -14 46 -16 353 -16 l346 0 -3 187 c-11 577 129 1107 423 1608 96 163 246 360 401 526 522 559 1217 904 1973 979 133 13 460 13 592 0 240 -24 500 -82 724 -160 199 -70 538 -247 740 -388 337 -234 665 -578 854 -897 183 -308 320 -647 385 -955 15 -69 30 -138 34 -155 l8 -30 1064 -5 c1034 -6 1067 -6 1120 -26 95 -34 154 -71 214 -130 155 -156 190 -388 88 -589 -38 -75 -147 -179 -229 -218 l-68 -32 -730 0 c-401 0 -2423 4 -4492 9 l-3763 9 0 -29 c0 -67 49 -306 100 -489 87 -312 251 -684 422 -956 639 -1014 1696 -1654 2881 -1745 l88 -6 -7 -89 -7 -89 262 0 261 0 0 49 c0 26 3 68 6 93 l6 44 117 13 c408 44 886 184 1246 363 860 429 1525 1181 1846 2088 l37 105 556 3 c519 2 556 1 556 -15 0 -24 -53 -212 -102 -363 -306 -944 -950 -1818 -1756 -2384 -547 -384 -1125 -645 -1692 -766 -347 -73 -599 -107 -902 -119 -1033 -41 -2020 237 -2877 812 -569 381 -1098 951 -1456 1567 -650 1118 -813 2468 -450 3715 69 237 139 415 282 715 358 752 969 1449 1678 1915 260 171 596 347 865 453 654 259 1385 377 2062 332z m1650 -5859 l937 -6 -59 -127 c-152 -334 -347 -614 -615 -884 -164 -164 -310 -285 -480 -398 -245 -162 -420 -247 -685 -334 -389 -128 -652 -172 -1031 -172 -205 0 -332 10 -514 41 -862 145 -1635 665 -2104 1414 -61 97 -207 380 -229 444 l-11 31 1927 -1 c1060 -1 2349 -5 2864 -8z"/>
 <path d="M6115 9083 c-699 -62 -1331 -375 -1810 -894 -347 -376 -563 -782 -675 -1272 -13 -54 -21 -99 -19 -101 2 -2 1236 -6 2742 -9 2182 -5 2737 -3 2737 7 0 6 -15 75 -34 152 -97 390 -243 694 -506 1049 -324 436 -870 809 -1424 971 -140 41 -336 78 -490 93 -101 10 -426 13 -521 4z m491 -698 c487 -64 876 -255 1219 -599 92 -92 231 -265 279 -347 l19 -32 -483 6 c-266 4 -1061 7 -1768 7 -1114 0 -1283 2 -1279 14 11 28 112 162 195 260 97 113 262 257 395 346 187 125 467 248 687 302 228 55 516 73 736 43z"/>
 <path d="M4230 6664 c0 -30 51 -166 88 -239 89 -169 251 -302 432 -351 89 -24 281 -24 369 0 201 55 365 190 468 383 32 61 83 189 83 210 0 13 -32 -4 -79 -41 -82 -64 -215 -148 -306 -194 -176 -88 -333 -112 -485 -73 -143 36 -275 105 -452 238 -91 68 -118 83 -118 67z"/>
 <path d="M6970 6664 c0 -29 51 -166 88 -239 146 -283 482 -437 792 -363 71 17 204 82 270 133 111 85 214 235 265 385 14 41 25 75 25 77 0 14 -40 -9 -124 -72 -245 -181 -455 -264 -641 -252 -145 9 -344 102 -552 259 -96 72 -123 88 -123 72z"/>
 </g>
<g id="layer2" fill="#fdfdfd" stroke="none">
 <path d="M9090 6319 l0 -497 1043 -7 c573 -4 1134 -5 1247 -3 l205 3 68 32 c82 39 191 143 229 218 102 201 67 433 -88 589 -60 60 -122 97 -214 129 -71 25 -136 26 -1457 30 l-1033 2 0 -496z"/>
 <path d="M2560 5960 c0 -123 2 -141 17 -147 9 -4 19 -1 21 5 3 9 97 12 368 12 l364 0 0 135 0 135 -385 0 -385 0 0 -140z"/>
 </g>

</svg>